<?xml version="1.0" encoding="UTF-8" standalone="no"?>
<!-- Created with Inkscape (http://www.inkscape.org/) -->

<svg
   width="610.547pt"
   height="498.047pt"
   viewBox="0 0 215.38741 175.69991"
   version="1.1"
   id="svg1"
   sodipodi:docname="blinken.svg"
   inkscape:version="1.3.2 (091e20e, 2023-11-25, custom)"
   xmlns:inkscape="http://www.inkscape.org/namespaces/inkscape"
   xmlns:sodipodi="http://sodipodi.sourceforge.net/DTD/sodipodi-0.dtd"
   xmlns:xlink="http://www.w3.org/1999/xlink"
   xmlns="http://www.w3.org/2000/svg"
   xmlns:svg="http://www.w3.org/2000/svg">
  <sodipodi:namedview
     id="namedview1"
     pagecolor="#ffffff"
     bordercolor="#000000"
     borderopacity="0.25"
     inkscape:showpageshadow="2"
     inkscape:pageopacity="0.0"
     inkscape:pagecheckerboard="0"
     inkscape:deskcolor="#d1d1d1"
     inkscape:document-units="mm"
     inkscape:zoom="1.1083866"
     inkscape:cx="390.2068"
     inkscape:cy="316.2254"
     inkscape:window-width="1920"
     inkscape:window-height="1009"
     inkscape:window-x="-8"
     inkscape:window-y="-8"
     inkscape:window-maximized="1"
     inkscape:current-layer="layer1"
     showguides="false" />
  <defs
     id="defs1">
    <radialGradient
       inkscape:collect="always"
       xlink:href="#linearGradient3954"
       id="radialGradient3960"
       cx="146.26566"
       cy="36.376698"
       fx="146.26566"
       fy="36.376698"
       r="406.25"
       gradientTransform="matrix(-0.01169554,1.432844,-1.777718,-0.01451054,280.6918,-81.15906)"
       gradientUnits="userSpaceOnUse" />
    <linearGradient
       id="linearGradient3954">
      <stop
         style="stop-color:#bf0303;stop-opacity:1;"
         offset="0"
         id="stop3956" />
      <stop
         style="stop-color:#8c0000;stop-opacity:1;"
         offset="1"
         id="stop3958" />
    </linearGradient>
    <radialGradient
       inkscape:collect="always"
       xlink:href="#linearGradient16643"
       id="radialGradient16649"
       cx="540.93671"
       cy="408.68011"
       fx="540.93671"
       fy="408.68011"
       r="233.34523"
       gradientUnits="userSpaceOnUse"
       gradientTransform="matrix(1.625428,0,0,1.092566,-490.6594,-151.1902)" />
    <linearGradient
       id="linearGradient16643">
      <stop
         style="stop-color:black;stop-opacity:1;"
         offset="0"
         id="stop16645" />
      <stop
         id="stop16651"
         offset="0.95454544"
         style="stop-color:black;stop-opacity:1;" />
      <stop
         style="stop-color:black;stop-opacity:0;"
         offset="1"
         id="stop16647" />
    </linearGradient>
    <radialGradient
       inkscape:collect="always"
       xlink:href="#linearGradient2783"
       id="radialGradient11320"
       cx="402.12259"
       cy="280.31979"
       fx="402.12259"
       fy="280.31979"
       r="381.78586"
       gradientTransform="matrix(1,0,0,0.674318,0,91.29513)"
       gradientUnits="userSpaceOnUse" />
    <linearGradient
       id="linearGradient2783">
      <stop
         style="stop-color:#323232;stop-opacity:1;"
         offset="0"
         id="stop2785" />
      <stop
         id="stop2787"
         offset="0.07692308"
         style="stop-color:#dfe1e1;stop-opacity:1;" />
      <stop
         style="stop-color:#b6b1b1;stop-opacity:1;"
         offset="0.26289096"
         id="stop2799" />
      <stop
         id="stop2789"
         offset="0.5"
         style="stop-color:#8d8282;stop-opacity:1;" />
      <stop
         style="stop-color:#ffffff;stop-opacity:1;"
         offset="0.78201604"
         id="stop2791" />
      <stop
         style="stop-color:#dfd9df;stop-opacity:1;"
         offset="0.9005897"
         id="stop2793" />
      <stop
         style="stop-color:#3a3a3a;stop-opacity:1;"
         offset="1"
         id="stop2795" />
    </linearGradient>
    <radialGradient
       inkscape:collect="always"
       xlink:href="#linearGradient44416"
       id="radialGradient48101"
       gradientUnits="userSpaceOnUse"
       gradientTransform="matrix(0.999982,0.00594694,-0.00301218,0.506501,3.118059,620.0599)"
       cx="-441.35168"
       cy="1037.7401"
       fx="-441.35168"
       fy="1037.7401"
       r="379.28586" />
    <linearGradient
       inkscape:collect="always"
       id="linearGradient44416">
      <stop
         style="stop-color:white;stop-opacity:1;"
         offset="0"
         id="stop44418" />
      <stop
         style="stop-color:white;stop-opacity:0;"
         offset="1"
         id="stop44420" />
    </linearGradient>
    <radialGradient
       inkscape:collect="always"
       xlink:href="#linearGradient44416"
       id="radialGradient48103"
       gradientUnits="userSpaceOnUse"
       gradientTransform="matrix(0.999997,-0.00226167,0.00301218,1.331839,-3.172833,-249.9313)"
       cx="-348.81091"
       cy="1053.0372"
       fx="-348.81091"
       fy="1053.0372"
       r="379.28586" />
    <linearGradient
       inkscape:collect="always"
       xlink:href="#linearGradient18914"
       id="linearGradient19816"
       x1="242.0625"
       y1="279.53125"
       x2="562.0625"
       y2="279.53125"
       gradientUnits="userSpaceOnUse" />
    <linearGradient
       id="linearGradient18914">
      <stop
         style="stop-color:white;stop-opacity:1;"
         offset="0"
         id="stop18916" />
      <stop
         id="stop18922"
         offset="0.5"
         style="stop-color:#bbb;stop-opacity:1;" />
      <stop
         style="stop-color:#747474;stop-opacity:1;"
         offset="0.75"
         id="stop18924" />
      <stop
         style="stop-color:white;stop-opacity:1;"
         offset="1"
         id="stop18918" />
    </linearGradient>
    <radialGradient
       inkscape:collect="always"
       xlink:href="#linearGradient40834"
       id="radialGradient48123"
       gradientUnits="userSpaceOnUse"
       gradientTransform="matrix(1,0,0,0.674318,-698.3801,1169.956)"
       cx="402.12259"
       cy="280.31979"
       fx="402.12259"
       fy="280.31979"
       r="381.78586" />
    <linearGradient
       id="linearGradient40834">
      <stop
         style="stop-color:#323232;stop-opacity:1;"
         offset="0"
         id="stop40836" />
      <stop
         id="stop40838"
         offset="0.07692308"
         style="stop-color:#ffffd4;stop-opacity:1;" />
      <stop
         style="stop-color:#8a7f00;stop-opacity:0;"
         offset="0.26289096"
         id="stop40840" />
      <stop
         id="stop40842"
         offset="0.5"
         style="stop-color:#aea300;stop-opacity:0.34509805;" />
      <stop
         style="stop-color:#c7bd2c;stop-opacity:0.54509807;"
         offset="0.78201604"
         id="stop40844" />
      <stop
         style="stop-color:#8a8200;stop-opacity:0.48235294;"
         offset="0.9005897"
         id="stop40846" />
      <stop
         style="stop-color:#3a3a3a;stop-opacity:1;"
         offset="1"
         id="stop40848" />
    </linearGradient>
    <radialGradient
       inkscape:collect="always"
       xlink:href="#linearGradient42636"
       id="radialGradient48120"
       gradientUnits="userSpaceOnUse"
       gradientTransform="matrix(0.741594,-5.875697e-7,3.872085e-7,0.487132,-109.0509,630.3531)"
       cx="-531.39288"
       cy="1229.0731"
       fx="-531.39288"
       fy="1229.0731"
       r="185.75" />
    <linearGradient
       inkscape:collect="always"
       id="linearGradient42636">
      <stop
         style="stop-color:#9f7b00;stop-opacity:1;"
         offset="0"
         id="stop42638" />
      <stop
         style="stop-color:#9f7b00;stop-opacity:0;"
         offset="1"
         id="stop42640" />
    </linearGradient>
    <linearGradient
       inkscape:collect="always"
       xlink:href="#linearGradient44416"
       id="linearGradient15364"
       x1="-354.63199"
       y1="1105.4688"
       x2="-313.38849"
       y2="1381.8846"
       gradientUnits="userSpaceOnUse" />
    <radialGradient
       inkscape:collect="always"
       xlink:href="#linearGradient44416"
       id="radialGradient9151"
       cx="-493.35367"
       cy="950.87042"
       fx="-493.35367"
       fy="950.87042"
       r="170.04688"
       gradientTransform="matrix(-0.220306,1.709582,-1.367577,-0.17623,721.4029,2031.652)"
       gradientUnits="userSpaceOnUse" />
    <radialGradient
       inkscape:collect="always"
       xlink:href="#linearGradient28336"
       id="radialGradient47985"
       gradientUnits="userSpaceOnUse"
       gradientTransform="matrix(1,0,0,0.667252,-0.669239,494.8028)"
       cx="-600.23883"
       cy="1370.1749"
       fx="-600.23883"
       fy="1370.1749"
       r="186.75" />
    <linearGradient
       id="linearGradient28336"
       inkscape:collect="always">
      <stop
         id="stop28338"
         offset="0"
         style="stop-color:#6193cf;stop-opacity:0.96085411" />
      <stop
         id="stop28340"
         offset="1"
         style="stop-color:#00438a;stop-opacity:0;" />
    </linearGradient>
    <radialGradient
       inkscape:collect="always"
       xlink:href="#linearGradient28324"
       id="radialGradient47982"
       gradientUnits="userSpaceOnUse"
       gradientTransform="matrix(1,0,0,0.667252,-0.599955,494.8841)"
       cx="-467.71136"
       cy="1517.4253"
       fx="-467.71136"
       fy="1517.4253"
       r="186.75" />
    <linearGradient
       inkscape:collect="always"
       id="linearGradient28324">
      <stop
         style="stop-color:#00438a;stop-opacity:1;"
         offset="0"
         id="stop28326" />
      <stop
         style="stop-color:#00438a;stop-opacity:0;"
         offset="1"
         id="stop28328" />
    </linearGradient>
    <radialGradient
       inkscape:collect="always"
       xlink:href="#linearGradient25589"
       id="radialGradient47979"
       gradientUnits="userSpaceOnUse"
       gradientTransform="matrix(1,0,0,0.674318,-699.1882,1170.163)"
       cx="402.12259"
       cy="280.31979"
       fx="402.12259"
       fy="280.31979"
       r="381.78586" />
    <linearGradient
       id="linearGradient25589">
      <stop
         id="stop25591"
         offset="0"
         style="stop-color:#323232;stop-opacity:1;" />
      <stop
         style="stop-color:#d4e9ff;stop-opacity:1;"
         offset="0.07692308"
         id="stop25593" />
      <stop
         id="stop25595"
         offset="0.26289096"
         style="stop-color:#00438a;stop-opacity:0;" />
      <stop
         style="stop-color:#0057ae;stop-opacity:0.34545454;"
         offset="0.5"
         id="stop25597" />
      <stop
         id="stop25599"
         offset="0.78201604"
         style="stop-color:#2c72c7;stop-opacity:0.54545456;" />
      <stop
         id="stop25601"
         offset="0.9005897"
         style="stop-color:#00438a;stop-opacity:0.48181817;" />
      <stop
         id="stop25603"
         offset="1"
         style="stop-color:#3a3a3a;stop-opacity:1;" />
    </linearGradient>
    <radialGradient
       inkscape:collect="always"
       xlink:href="#linearGradient33702"
       id="radialGradient47995"
       gradientUnits="userSpaceOnUse"
       gradientTransform="matrix(1,0,0,0.674318,-698.3801,1169.956)"
       cx="402.12259"
       cy="280.31979"
       fx="402.12259"
       fy="280.31979"
       r="381.78586" />
    <linearGradient
       id="linearGradient33702">
      <stop
         style="stop-color:#323232;stop-opacity:1;"
         offset="0"
         id="stop33704" />
      <stop
         id="stop33706"
         offset="0.07692308"
         style="stop-color:#d4ffe5;stop-opacity:1;" />
      <stop
         style="stop-color:#00892c;stop-opacity:0;"
         offset="0.26289096"
         id="stop33708" />
      <stop
         id="stop33710"
         offset="0.5"
         style="stop-color:#00ae51;stop-opacity:0.34509805;" />
      <stop
         style="stop-color:#2cc76e;stop-opacity:0.54509807;"
         offset="0.78201604"
         id="stop33712" />
      <stop
         style="stop-color:#00892c;stop-opacity:0.47272727;"
         offset="0.9005897"
         id="stop33714" />
      <stop
         style="stop-color:#3a3a3a;stop-opacity:1;"
         offset="1"
         id="stop33716" />
    </linearGradient>
    <radialGradient
       inkscape:collect="always"
       xlink:href="#linearGradient34605"
       id="radialGradient47992"
       gradientUnits="userSpaceOnUse"
       gradientTransform="matrix(0.9939,-0.171648,0.07664656,0.44381,-128.9476,850.9539)"
       cx="-44.434971"
       cy="1183.3887"
       fx="-44.434971"
       fy="1183.3887"
       r="185.75" />
    <linearGradient
       inkscape:collect="always"
       id="linearGradient34605">
      <stop
         style="stop-color:#005e1e;stop-opacity:1;"
         offset="0"
         id="stop34607" />
      <stop
         style="stop-color:#005e1e;stop-opacity:0;"
         offset="1"
         id="stop34609" />
    </linearGradient>
    <radialGradient
       inkscape:collect="always"
       xlink:href="#linearGradient34605"
       id="radialGradient47989"
       gradientUnits="userSpaceOnUse"
       gradientTransform="matrix(0.767896,-0.102744,0.04910988,0.367042,-106.4035,944.8628)"
       cx="-197.81342"
       cy="1604.2413"
       fx="-197.81342"
       fy="1604.2413"
       r="185.75" />
    <radialGradient
       inkscape:collect="always"
       xlink:href="#linearGradient39933"
       id="radialGradient48047"
       gradientUnits="userSpaceOnUse"
       gradientTransform="matrix(1,0,0,0.674318,-698.3801,1169.956)"
       cx="402.12259"
       cy="280.31979"
       fx="402.12259"
       fy="280.31979"
       r="381.78586" />
    <linearGradient
       id="linearGradient39933">
      <stop
         style="stop-color:#323232;stop-opacity:1;"
         offset="0"
         id="stop39935" />
      <stop
         id="stop39937"
         offset="0.07692308"
         style="stop-color:#ffd4d4;stop-opacity:1;" />
      <stop
         style="stop-color:#8a0800;stop-opacity:0;"
         offset="0.26289096"
         id="stop39939" />
      <stop
         id="stop39941"
         offset="0.5"
         style="stop-color:#ae0003;stop-opacity:0.34509805;" />
      <stop
         style="stop-color:#c72c32;stop-opacity:0.54509807;"
         offset="0.78201604"
         id="stop39943" />
      <stop
         style="stop-color:#8a1300;stop-opacity:0.48235294;"
         offset="0.9005897"
         id="stop39945" />
      <stop
         style="stop-color:#3a3a3a;stop-opacity:1;"
         offset="1"
         id="stop39947" />
    </linearGradient>
    <radialGradient
       inkscape:collect="always"
       xlink:href="#linearGradient41737"
       id="radialGradient48044"
       gradientUnits="userSpaceOnUse"
       gradientTransform="matrix(1,0,0,0.665461,0,411.1735)"
       cx="-45.849625"
       cy="1287.4463"
       fx="-45.849625"
       fy="1287.4463"
       r="185.75" />
    <linearGradient
       inkscape:collect="always"
       id="linearGradient41737">
      <stop
         style="stop-color:#890000;stop-opacity:1;"
         offset="0"
         id="stop41739" />
      <stop
         style="stop-color:#890000;stop-opacity:0;"
         offset="1"
         id="stop41741" />
    </linearGradient>
    <radialGradient
       inkscape:collect="always"
       xlink:href="#linearGradient41737"
       id="radialGradient48041"
       gradientUnits="userSpaceOnUse"
       gradientTransform="matrix(0.574612,-0.00460262,0.00331358,0.413683,-109.4956,711.704)"
       cx="-106.89494"
       cy="1196.9805"
       fx="-106.89494"
       fy="1196.9805"
       r="185.75" />
    <radialGradient
       inkscape:collect="always"
       xlink:href="#linearGradient44416"
       id="radialGradient57113"
       gradientUnits="userSpaceOnUse"
       gradientTransform="matrix(0.999997,-0.00226167,0.00301218,1.331839,-3.172833,-249.9313)"
       cx="-348.81091"
       cy="1053.0372"
       fx="-348.81091"
       fy="1053.0372"
       r="379.28586" />
    <radialGradient
       inkscape:collect="always"
       xlink:href="#linearGradient44416"
       id="radialGradient6492"
       cx="-226.11099"
       cy="1170.8074"
       fx="-226.11099"
       fy="1170.8074"
       r="185.75"
       gradientTransform="matrix(1,0,0,0.665461,0,411.1748)"
       gradientUnits="userSpaceOnUse" />
  </defs>
  <g
     inkscape:label="Слой 1"
     inkscape:groupmode="layer"
     id="layer1">
    <g
       id="blinkenBase"
       transform="matrix(0.26527354,0,0,0.26511198,0.1407347,0.1194406)">
      <path
         d="M 0,0 V 662.5 H 812.5 V 0 Z"
         style="color:#000000;fill:url(#radialGradient3960);fill-opacity:1;fill-rule:evenodd;stroke:none;stroke-width:3.125;stroke-linecap:round;stroke-linejoin:round;stroke-miterlimit:4;stroke-dashoffset:0;stroke-opacity:1;marker:none;marker-start:none;marker-mid:none;marker-end:none"
         id="rect1709" />
      <path
         d="M 530.40625,328.125 0,356.0625 V 662.5 h 549.84375 z"
         style="color:#000000;fill:#000000;fill-opacity:0.501961;fill-rule:evenodd;stroke:none;stroke-width:3.125;stroke-linecap:round;stroke-linejoin:round;stroke-miterlimit:4;stroke-dashoffset:0;stroke-opacity:1;marker:none;marker-start:none;marker-mid:none;marker-end:none"
         id="path8373" />
      <path
         d="M 522.90625,323.125 0,350.65625 V 662.5 h 542.65625 z"
         style="color:#000000;fill:#f5f5f5;fill-opacity:1;fill-rule:evenodd;stroke:none;stroke-width:3.125;stroke-linecap:round;stroke-linejoin:round;stroke-miterlimit:4;stroke-dashoffset:0;stroke-opacity:1;marker:none;marker-start:none;marker-mid:none;marker-end:none"
         id="rect1087" />
      <path
         id="path13986"
         style="color:#000000;opacity:1;fill:none;fill-opacity:1;fill-rule:evenodd;stroke:#383838;stroke-width:10;stroke-linecap:round;stroke-linejoin:round;stroke-miterlimit:4;stroke-dasharray:none;stroke-dashoffset:0;stroke-opacity:0.188612;marker:none;marker-start:none;marker-mid:none;marker-end:none"
         d="m 781.40845,280.31979 c 0,140.72968 -169.92009,254.94507 -379.28588,254.94507 -209.3658,0 -379.285866,-114.21539 -379.285866,-254.94507 0,-140.72966 169.920066,-254.945061 379.285866,-254.945061 209.36579,0 379.28588,114.215401 379.28588,254.945061 z" />
      <path
         d="M 526,376.1875 0,406.75 V 408 l 526.0625,-30.59375 z m 1.9375,33.53125 L 0,440.4375 v 1.25 L 528,410.96875 Z M 529.90625,443.25 0,474.0625 v 1.28125 L 529.96875,444.5 Z m 1.9375,33.5625 L 0,507.75 v 1.21875 L 531.90625,478.0625 Z m 1.9375,33.53125 L 0,541.40625 v 1.25 l 533.875,-31.0625 z M 535.75,543.875 0,575.03125 v 1.25 L 535.8125,545.125 Z m 1.9375,33.5625 L 0,608.71875 v 1.25 L 537.78125,578.6875 Z m 1.96875,33.53125 L 0,642.375 v 1.25 l 539.71875,-31.40625 z m 1.9375,33.5625 L 232.4375,662.5 H 253.75 l 287.90625,-16.75 z"
         style="fill:#2b71b2;fill-opacity:1;fill-rule:evenodd;stroke:none;stroke-width:0.902174pt;stroke-linecap:butt;stroke-linejoin:miter;stroke-opacity:1"
         id="path1711" />
      <path
         d="m 14.9375,347.65625 -1.21875,0.0625 L 32.03125,662.5 H 33.25 Z"
         style="fill:#c30303;fill-opacity:1;fill-rule:evenodd;stroke:none;stroke-width:0.902174pt;stroke-linecap:butt;stroke-linejoin:miter;stroke-opacity:1"
         id="path1710" />
      <path
         d="M 542.65625,662.5 522.90625,323.125 0,350.65625"
         style="color:#000000;fill:none;fill-opacity:1;fill-rule:evenodd;stroke:#cccccc;stroke-width:3.125;stroke-linecap:round;stroke-linejoin:round;stroke-miterlimit:4;stroke-dasharray:none;stroke-dashoffset:0;stroke-opacity:1;marker:none;marker-start:none;marker-mid:none;marker-end:none"
         id="rect2359" />
      <path
         d="m 767.88011,295.31979 c 0,140.72968 -169.92008,254.94507 -379.28587,254.94507 -209.3658,0 -379.2858669,-114.21539 -379.2858669,-254.94507 0,-140.72966 169.9200669,-254.945061 379.2858669,-254.945061 209.36579,0 379.28587,114.215401 379.28587,254.945061 z"
         style="color:#000000;opacity:0.774648;fill:url(#radialGradient16649);fill-opacity:1;fill-rule:evenodd;stroke:none;stroke-width:3.752;stroke-linecap:round;stroke-linejoin:round;stroke-miterlimit:4;stroke-dashoffset:0;stroke-opacity:1;marker:none;marker-start:none;marker-mid:none;marker-end:none"
         id="path1727" />
      <path
         d="m 781.40845,280.31979 c 0,140.72968 -169.92009,254.94507 -379.28588,254.94507 -209.3658,0 -379.285866,-114.21539 -379.285866,-254.94507 0,-140.72966 169.920066,-254.945061 379.285866,-254.945061 209.36579,0 379.28588,114.215401 379.28588,254.945061 z"
         style="color:#000000;fill:#7f7f7f;fill-opacity:1;fill-rule:evenodd;stroke:none;stroke-width:3.752;stroke-linecap:round;stroke-linejoin:round;stroke-miterlimit:4;stroke-dashoffset:0;stroke-opacity:1;marker:none;marker-start:none;marker-mid:none;marker-end:none"
         id="path1758" />
      <path
         d="m 781.40845,280.31979 c 0,140.72968 -169.92009,254.94507 -379.28588,254.94507 -209.3658,0 -379.285866,-114.21539 -379.285866,-254.94507 0,-140.72966 169.920066,-254.945061 379.285866,-254.945061 209.36579,0 379.28588,114.215401 379.28588,254.945061 z"
         style="color:#000000;opacity:1;fill:url(#radialGradient11320);fill-opacity:1;fill-rule:evenodd;stroke:#000000;stroke-width:5;stroke-linecap:round;stroke-linejoin:round;stroke-miterlimit:4;stroke-dashoffset:0;stroke-opacity:0.330961;marker:none;marker-start:none;marker-mid:none;marker-end:none"
         id="path5399" />
      <path
         d="m 781.353,412.21564 c 0,119.0485 -96.61908,215.66757 -215.66758,215.66757 -119.04849,0 -215.66757,-96.61907 -215.66757,-215.66757 0,-119.0485 96.61908,-215.66757 215.66757,-215.66757 119.0485,0 215.66758,96.61907 215.66758,215.66757 z"
         transform="matrix(0.882371,0,0,0.882371,-97.02918,-83.40286)"
         style="color:#000000;fill:#000000;fill-opacity:1;fill-rule:evenodd;stroke:#000000;stroke-width:5.66655;stroke-linecap:round;stroke-linejoin:round;stroke-miterlimit:4;stroke-dashoffset:0;stroke-opacity:1;marker:none;marker-start:none;marker-mid:none;marker-end:none"
         id="path6043" />
      <g
         id="g48095"
         transform="translate(699.567,-1078.751)">
        <path
           sodipodi:nodetypes="ccccscsc"
           id="path48097"
           d="m -296.25,1104.0312 c -209.3658,0 -345.00691,127.9176 -345.0069,268.6473 1.57405,13.0796 5.30898,18.3855 2.60382,-5.2558 -2e-5,-144.4184 166.07128,-250.2315 367.87871,-250.2315 201.807416,10e-5 332.46187,114.9529 332.46187,259.3713 0,46.7014 -17.154368,90.5327 -47.15625,128.5 43.14846,-41.3819 68.500001,-91.76 68.5,-146.0937 0,-140.7297 -169.915474,-254.9375 -379.28125,-254.9376 z"
           style="color:#000000;opacity:0.197183;fill:url(#radialGradient48101);fill-opacity:1;fill-rule:evenodd;stroke:none;stroke-width:5;stroke-linecap:round;stroke-linejoin:round;stroke-miterlimit:4;stroke-dashoffset:0;stroke-opacity:0.330961;marker:none;marker-start:none;marker-mid:none;marker-end:none" />
        <path
           id="path48099"
           d="m -296.25,1104.0312 c -172.23712,0 -317.79644,77.295 -364,183.0626 47.08815,120.7575 185.30272,208.2812 348.34375,208.2812 178.81336,0 327.781965,-105.2855 359.40625,-244.2188 -60.467528,-86.8812 -191.70671,-147.1249 -343.75,-147.125 z"
           style="color:#000000;opacity:0.383803;fill:url(#radialGradient48103);fill-opacity:1;fill-rule:evenodd;stroke:none;stroke-width:5;stroke-linecap:round;stroke-linejoin:round;stroke-miterlimit:4;stroke-dashoffset:0;stroke-opacity:0.330961;marker:none;marker-start:none;marker-mid:none;marker-end:none" />
      </g>
      <path
         style="fill:url(#linearGradient19816);fill-opacity:1"
         d="m 251.1875,247.6875 c -2.52611,5e-5 -4.70259,0.9214 -6.5,2.71875 -1.74884,1.74888 -2.625,3.88019 -2.625,6.40625 v 29.15625 c 0,2.52609 0.87616,4.67133 2.625,6.46875 1.79741,1.74882 3.97388,2.62499 6.5,2.625 h 29.15625 c 2.52607,0 4.65737,-0.87617 6.40625,-2.625 1.79736,-1.79743 2.68746,-3.94265 2.6875,-6.46875 v -10.9375 c -4e-5,-1.3116 -0.23297,-2.53889 -0.71875,-3.65625 0.48575,-1.11729 0.71871,-2.31334 0.71875,-3.625 v -10.9375 c -4e-5,-2.52607 -0.89014,-4.65736 -2.6875,-6.40625 -1.74888,-1.79736 -3.88018,-2.71872 -6.40625,-2.71875 z m 51.125,0 c -2.5261,5e-5 -4.70262,0.9214 -6.5,2.71875 -1.74885,1.74888 -2.62503,3.88019 -2.625,6.40625 v 29.15625 c 10e-6,2.52609 0.87614,4.67133 2.625,6.46875 1.79739,1.74882 3.97393,2.62499 6.5,2.625 h 29.125 c 2.52605,0 4.68867,-0.87617 6.4375,-2.625 1.79739,-1.79743 2.65617,-3.94265 2.65625,-6.46875 -4e-5,-2.5261 -0.85883,-4.6574 -2.65625,-6.40625 -1.74886,-1.79738 -3.91146,-2.71875 -6.4375,-2.71875 H 311.40625 V 256.8125 c -2e-5,-2.52607 -0.89009,-4.65736 -2.6875,-6.40625 -1.74883,-1.79736 -3.88012,-2.71872 -6.40625,-2.71875 z m 51.09375,0 c -2.52609,3e-5 -4.7026,0.9214 -6.5,2.71875 -1.74881,1.74888 -2.59375,3.88019 -2.59375,6.40625 4e-5,3.06049 1.19605,5.48387 3.625,7.28125 -2.42898,1.84603 -3.625,4.2694 -3.625,7.28125 v 14.59375 c 4e-5,2.52609 0.8449,4.67133 2.59375,6.46875 1.79744,1.74882 3.9739,2.625 6.5,2.625 2.5261,-10e-6 4.65741,-0.87617 6.40625,-2.625 1.79739,-1.79743 2.71874,-3.94265 2.71875,-6.46875 V 271.375 c -10e-6,-3.01184 -1.25859,-5.43523 -3.6875,-7.28125 2.42889,-1.79737 3.68749,-4.22075 3.6875,-7.28125 -10e-6,-2.52607 -0.92134,-4.65736 -2.71875,-6.40625 -1.74886,-1.79736 -3.88017,-2.7187 -6.40625,-2.71875 z m 21.9375,0 c -2.52611,5e-5 -4.67133,0.9214 -6.46875,2.71875 -1.74885,1.74888 -2.62498,3.88019 -2.625,6.40625 v 29.15625 c 10e-6,2.52609 0.87617,4.67133 2.625,6.46875 1.7974,1.74882 3.94265,2.62499 6.46875,2.625 2.52607,0 4.71988,-0.87617 6.46875,-2.625 1.79742,-1.79743 2.68746,-3.94265 2.6875,-6.46875 V 265.9375 h 10.90625 v 20.03125 c -2e-5,2.52609 0.87613,4.67133 2.625,6.46875 1.79737,1.74882 3.97386,2.62499 6.5,2.625 0.98596,0 1.88581,-0.16118 2.75,-0.4375 l -3.75,4.875 4.625,4.375 L 415,299.15625 c 1.66684,0.98921 4.98454,2.27591 6.90625,2.8125 L 424,311.375 h 5.5625 l 1.65625,-9.1875 c 1.93965,-0.46675 5.95796,-1.70013 7.65625,-2.625 l 7.21875,5.125 4.78125,-5.1875 -0.6875,-1.5625 -3.625,1.46875 -3.96875,-5.375 c -3.28556,4.31747 -10.07895,7.125 -16.0625,7.125 -9.96421,0 -20.375,-9.94632 -20.375,-19.53125 10e-6,-4.88194 2.60779,-10.48559 6.28125,-14.3125 h 1.1875 v -1.125 c 1.11639,-0.98823 2.30612,-1.81651 3.53125,-2.40625 v -1.375 c -0.86781,0.3284 -0.37721,0.19799 -1.1875,0.625 L 413.625,261.5 v -4.6875 c -4e-5,-2.52607 -0.92136,-4.65736 -2.71875,-6.40625 -1.74889,-1.79736 -3.84895,-2.71872 -6.375,-2.71875 z m 97.375,0 c -2.52609,5e-5 -4.73382,0.9214 -6.53125,2.71875 -1.74885,1.74888 -2.62498,3.88019 -2.625,6.40625 10e-6,3.01191 1.25858,5.43531 3.6875,7.28125 -2.42893,1.79744 -3.68748,4.22084 -3.6875,7.28125 v 14.59375 c 10e-6,2.52609 0.87618,4.67133 2.625,6.46875 1.7974,1.74882 4.00515,2.62499 6.53125,2.625 h 29.125 c 2.52604,0 4.68864,-0.87617 6.4375,-2.625 1.79737,-1.79743 2.65622,-3.94265 2.65625,-6.46875 -4e-5,-3.06047 -1.19611,-5.51508 -3.625,-7.3125 2.42889,-1.84598 3.62497,-4.26933 3.625,-7.28125 -4e-5,-3.06042 -1.19611,-5.48379 -3.625,-7.28125 2.42889,-1.84595 3.62497,-4.26933 3.625,-7.28125 -4e-5,-2.52607 -0.85888,-4.65736 -2.65625,-6.40625 -1.74887,-1.79736 -3.91143,-2.71872 -6.4375,-2.71875 z m 51.09375,0 c -2.52609,5e-5 -4.7026,0.9214 -6.5,2.71875 -1.74885,1.74888 -2.59375,3.88019 -2.59375,6.40625 v 29.15625 c 3e-5,2.52609 0.8449,4.67133 2.59375,6.46875 1.7974,1.74882 3.97389,2.62499 6.5,2.625 2.52611,0 4.6574,-0.87617 6.40625,-2.625 1.79739,-1.79743 2.68749,-3.94265 2.6875,-6.46875 V 265.9375 h 10.9375 v 20.03125 c -5e-5,2.52609 0.87612,4.67133 2.625,6.46875 1.7974,1.74882 3.94266,2.62499 6.46875,2.625 2.52603,0 4.68862,-0.87617 6.4375,-2.625 1.7974,-1.79743 2.68745,-3.94265 2.6875,-6.46875 V 256.8125 c -2e-5,-2.52607 -0.89014,-4.65736 -2.6875,-6.40625 -1.74885,-1.79736 -3.91142,-2.71872 -6.4375,-2.71875 z m -76.59375,1.875 -13.5625,18.46875 0.53125,-18.34375 -11.0625,1.15625 v 41.5 l 11.0625,-0.75 0.125,-17.59375 13.5625,19.1875 11.15625,-3.625 -13.875,-18.875 v -0.21875 l 13.4375,-17.28125 z M 250.625,251.375 c 0.18104,-0.0164 0.37425,0 0.5625,0 h 29.15625 c 1.50592,4e-5 2.80625,0.52507 3.875,1.59375 1.06869,1.06876 1.59368,2.33786 1.59375,3.84375 V 267.75 c -3e-5,1.4574 -0.48329,2.65346 -1.40625,3.625 0.92295,0.97161 1.40618,2.19892 1.40625,3.65625 v 10.9375 c -3e-5,1.50592 -0.52503,2.77503 -1.59375,3.84375 -1.06878,1.06874 -2.36908,1.625 -3.875,1.625 H 251.1875 c -1.50595,10e-6 -2.80628,-0.55626 -3.875,-1.625 -1.06873,-1.06872 -1.56249,-2.33782 -1.5625,-3.84375 V 256.8125 c -1e-5,-1.5059 0.49375,-2.77496 1.5625,-3.84375 0.93514,-0.93512 2.04522,-1.47913 3.3125,-1.59375 z m 51.125,0 c 0.18205,-0.0164 0.37426,0 0.5625,0 1.50593,4e-5 2.77496,0.52507 3.84375,1.59375 1.06872,1.06876 1.59372,2.33786 1.59375,3.84375 v 23.65625 h 23.6875 c 1.5059,0 2.80622,0.58752 3.875,1.65625 1.06869,1.06873 1.59375,2.33781 1.59375,3.84375 -4e-5,1.50592 -0.52506,2.77503 -1.59375,3.84375 -1.06878,1.06874 -2.36912,1.625 -3.875,1.625 h -29.125 c -1.50594,10e-6 -2.80624,-0.55626 -3.875,-1.625 -1.06874,-1.06872 -1.59374,-2.33782 -1.59375,-3.84375 V 256.8125 c 10e-6,-1.5059 0.52504,-2.77496 1.59375,-3.84375 0.93514,-0.93512 2.03817,-1.47913 3.3125,-1.59375 z m 51.125,0 c 0.18205,-0.0164 0.34301,0 0.53125,0 1.50595,3e-5 2.77501,0.52505 3.84375,1.59375 1.06874,1.06878 1.59373,2.33786 1.59375,3.84375 -4e-5,1.50597 -0.52503,2.8063 -1.59375,3.875 -1.06872,1.06875 -2.33781,1.59377 -3.84375,1.59375 -1.50595,10e-6 -2.80628,-0.52498 -3.875,-1.59375 -1.06871,-1.06872 -1.59375,-2.36902 -1.59375,-3.875 -3e-5,-1.5059 0.52503,-2.77498 1.59375,-3.84375 0.93514,-0.9351 2.06939,-1.47912 3.34375,-1.59375 z m 21.9375,0 c 0.18104,-0.0164 0.34301,0 0.53125,0 h 29.1875 c 1.5059,4e-5 2.77499,0.52507 3.84375,1.59375 1.06869,1.06876 1.62495,2.33786 1.625,3.84375 v 2.3125 l -1.34375,-0.875 -4.78125,4.0625 5.5625,8.25 c -0.85475,1.42485 -2.53771,3.95333 -3.03125,5.5625 l -7.375,1.84375 v -15.6875 h -18.1875 v 23.6875 c -3e-5,1.50592 -0.52504,2.77503 -1.59375,3.84375 -1.06872,1.06874 -2.40031,1.625 -3.90625,1.625 -1.50596,10e-6 -2.77502,-0.55626 -3.84375,-1.625 -1.06874,-1.06872 -1.59372,-2.33782 -1.59375,-3.84375 V 256.8125 c -10e-6,-1.5059 0.52502,-2.77496 1.59375,-3.84375 0.93513,-0.93512 2.04523,-1.47913 3.3125,-1.59375 z m 97.34375,0 c 0.18205,-0.0164 0.37426,0 0.5625,0 h 29.125 c 1.50588,4e-5 2.80623,0.52507 3.875,1.59375 1.06869,1.06876 1.5937,2.33786 1.59375,3.84375 -5e-5,1.50597 -0.52506,2.80629 -1.59375,3.875 -1.06877,1.06876 -2.3691,1.59377 -3.875,1.59375 h -29.125 c -1.50594,10e-6 -2.80627,-0.52499 -3.875,-1.59375 -1.06873,-1.06871 -1.59374,-2.36902 -1.59375,-3.875 10e-6,-1.5059 0.52502,-2.77496 1.59375,-3.84375 0.93514,-0.93512 2.03815,-1.47913 3.3125,-1.59375 z m 51.09375,0 c 0.18205,-0.0164 0.37425,0 0.5625,0 h 29.125 c 1.50588,4e-5 2.80621,0.52507 3.875,1.59375 1.0687,1.06876 1.5937,2.33786 1.59375,3.84375 v 29.15625 c -10e-6,1.50592 -0.52507,2.77503 -1.59375,3.84375 -1.06877,1.06874 -2.36907,1.625 -3.875,1.625 -1.506,10e-6 -2.77507,-0.55626 -3.84375,-1.625 -1.06877,-1.06872 -1.5938,-2.33782 -1.59375,-3.84375 v -23.6875 h -18.25 v 23.6875 c -3e-5,1.50592 -0.52503,2.77503 -1.59375,3.84375 -1.06877,1.06874 -2.33783,1.625 -3.84375,1.625 -1.50594,10e-6 -2.80629,-0.55626 -3.875,-1.625 -1.06876,-1.06872 -1.59375,-2.33782 -1.59375,-3.84375 V 256.8125 c 2e-5,-1.5059 0.525,-2.77496 1.59375,-3.84375 0.93512,-0.93512 2.03814,-1.47913 3.3125,-1.59375 z m -266.59375,10.90625 v 3.65625 h 18.1875 v -3.65625 z m 96.75,3.65625 c 1.50595,10e-6 2.77501,0.52504 3.84375,1.59375 1.06874,1.06875 1.59373,2.33784 1.59375,3.84375 v 14.59375 c -4e-5,1.50592 -0.52503,2.77502 -1.59375,3.84375 -1.06872,1.06875 -2.33781,1.625 -3.84375,1.625 -1.50595,10e-6 -2.80628,-0.55627 -3.875,-1.625 -1.06871,-1.06871 -1.59375,-2.33782 -1.59375,-3.84375 V 271.375 c -3e-5,-1.5059 0.52503,-2.775 1.59375,-3.84375 1.06873,-1.06871 2.36904,-1.59372 3.875,-1.59375 z m 119.3125,0 h 29.125 c 1.50588,10e-6 2.80623,0.52503 3.875,1.59375 1.06869,1.06876 1.5937,2.33785 1.59375,3.84375 -5e-5,1.50597 -0.52506,2.83754 -1.59375,3.90625 -1.06877,1.06877 -2.3691,1.5625 -3.875,1.5625 h -23.6875 v 3.625 h 23.6875 c 1.50588,0 2.80623,0.58752 3.875,1.65625 1.06869,1.06873 1.5937,2.33781 1.59375,3.84375 -5e-5,1.50592 -0.52506,2.77503 -1.59375,3.84375 -1.06877,1.06874 -2.3691,1.625 -3.875,1.625 h -29.125 c -1.50594,10e-6 -2.80627,-0.55626 -3.875,-1.625 -1.06873,-1.06872 -1.59374,-2.33782 -1.59375,-3.84375 V 271.375 c 10e-6,-1.50591 0.52502,-2.77501 1.59375,-3.84375 1.06873,-1.0687 2.36905,-1.59372 3.875,-1.59375 z m -216.0625,10.90625 v 3.625 h 18.1875 v -3.625 z m 142.375,7.75 6.90625,2.1875 c 0.29091,0.91848 1.01156,2.29308 1.71875,3.59375 -0.91185,0.68236 -1.93264,1.0625 -3.125,1.0625 -1.50599,10e-6 -2.80631,-0.55626 -3.875,-1.625 -1.06878,-1.06872 -1.62503,-2.33782 -1.625,-3.84375 z m 9.25,6.90625 c 0.19648,0.34521 0.44509,0.81054 0.59375,1.0625 l -0.59375,0.78125 z"
         id="text1417" />
    </g>
    <g
       id="yellow_normal"
       inkscape:label="#g48126"
       transform="matrix(0.26460823,0,0,0.26431176,183.57281,-285.50606)">
      <path
         d="m -300.2394,1105.467 c -102.16812,0.9278 -194.53337,29.1637 -261.5625,74.2187 -66.46661,44.677 -107.91537,105.683 -109.9375,173 h 172.9375 c 2.70123,-108.3597 90.20588,-195.8459 198.5625,-198.5625 z"
         style="color:#000000;fill:#f3c300;fill-opacity:1;fill-rule:evenodd;stroke:none;stroke-width:3.125;stroke-linecap:round;stroke-linejoin:round;stroke-miterlimit:4;stroke-dashoffset:0;stroke-opacity:1;marker:none;marker-start:none;marker-mid:none;marker-end:none"
         id="path27380" />
      <path
         style="color:#000000;fill:url(#radialGradient48123);fill-opacity:1;fill-rule:evenodd;stroke:#000000;stroke-width:2;stroke-linecap:round;stroke-linejoin:round;stroke-miterlimit:4;stroke-dasharray:none;stroke-dashoffset:0;stroke-opacity:0.330961;marker:none;marker-start:none;marker-mid:none;marker-end:none"
         d="m -300.24103,1105.4649 c -102.16811,0.9278 -194.53337,29.1637 -261.5625,74.2187 -66.46663,44.677 -107.91537,105.683 -109.9375,173 h 172.9375 c 2.70121,-108.3597 90.20588,-195.8459 198.5625,-198.5625 z"
         id="path27388" />
      <path
         id="path41749"
         d="m -300.24103,1105.4649 c -102.16811,0.9278 -194.53337,29.1637 -261.5625,74.2187 -66.46663,44.677 -107.91537,105.683 -109.9375,173 h 172.9375 c 2.70121,-108.3597 90.20588,-195.8459 198.5625,-198.5625 z"
         style="color:#000000;opacity:0.475352;fill:url(#radialGradient48120);fill-opacity:1;fill-rule:evenodd;stroke:none;stroke-width:2;stroke-linecap:round;stroke-linejoin:round;stroke-miterlimit:4;stroke-dasharray:none;stroke-dashoffset:0;stroke-opacity:0.330961;marker:none;marker-start:none;marker-mid:none;marker-end:none" />
      <path
         id="path47998"
         d="m -300.25,1105.4688 c -102.16811,0.9214 -194.53337,28.9615 -261.5625,73.7042 -45.53838,30.3974 -79.30133,68.3987 -96.71875,110.8202 8.88918,21.5251 20.6973,41.9689 35.09375,60.9806 h 124.625 c 2.70121,-107.6086 90.20588,-194.4883 198.5625,-197.1861 z"
         style="color:#000000;opacity:0.102113;fill:url(#linearGradient15364);fill-opacity:1;fill-rule:evenodd;stroke:none;stroke-width:5;stroke-linecap:round;stroke-linejoin:round;stroke-miterlimit:4;stroke-dashoffset:0;stroke-opacity:0.330961;marker:none;marker-start:none;marker-mid:none;marker-end:none" />
      <path
         id="path48007"
         d="m -300.25,1105.4688 c -34.61001,0.3143 -68.08744,3.7634 -99.84375,9.9374 -140.62065,32.3059 -230.34078,129.3008 -240.25,237.2813 h 2.28125 c 10.314,-129.8582 156.36121,-225.367 337.8125,-234.75 z"
         style="color:#000000;opacity:0.257042;fill:url(#radialGradient9151);fill-opacity:1;fill-rule:evenodd;stroke:none;stroke-width:5;stroke-linecap:round;stroke-linejoin:round;stroke-miterlimit:4;stroke-dashoffset:0;stroke-opacity:0.330961;marker:none;marker-start:none;marker-mid:none;marker-end:none" />
    </g>
    <g
       id="blue_normal"
       inkscape:label="#g48067"
       transform="matrix(0.26460823,0,0,0.26431176,183.78639,-283.89343)">
      <path
         d="m -672.54725,1363.4023 c 2.03407,67.3146 43.48122,128.3461 109.9375,173.0218 67.02913,45.0608 159.39438,73.2699 261.5625,74.1968 v -48.6311 c -108.34623,-2.7175 -195.84526,-90.2277 -198.5625,-198.5875 z"
         style="color:#000000;fill:#0057ae;fill-opacity:1;fill-rule:evenodd;stroke:none;stroke-width:3.125;stroke-linecap:round;stroke-linejoin:round;stroke-miterlimit:4;stroke-dashoffset:0;stroke-opacity:1;marker:none;marker-start:none;marker-mid:none;marker-end:none"
         id="path27386" />
      <path
         style="color:#000000;fill:url(#radialGradient47985);fill-opacity:1;fill-rule:evenodd;stroke:none;stroke-width:2;stroke-linecap:round;stroke-linejoin:round;stroke-miterlimit:4;stroke-dasharray:none;stroke-dashoffset:0;stroke-opacity:0.330961;marker:none;marker-start:none;marker-mid:none;marker-end:none"
         d="m -672.41027,1363.1346 c 2.03405,67.3146 43.48122,128.3556 109.9375,173.0313 67.02911,45.0608 159.39438,73.2606 261.5625,74.1875 v -48.625 c -108.34622,-2.7175 -195.84526,-90.2339 -198.5625,-198.5938 z"
         id="path28332" />
      <path
         id="path28314"
         d="m -672.34098,1363.2159 c 2.03405,67.3146 43.48122,128.3556 109.9375,173.0313 67.02911,45.0608 159.39438,73.2606 261.5625,74.1875 v -48.625 c -108.34622,-2.7175 -195.84526,-90.2339 -198.5625,-198.5938 z"
         style="color:#000000;fill:url(#radialGradient47982);fill-opacity:1;fill-rule:evenodd;stroke:none;stroke-width:2;stroke-linecap:round;stroke-linejoin:round;stroke-miterlimit:4;stroke-dasharray:none;stroke-dashoffset:0;stroke-opacity:0.330961;marker:none;marker-start:none;marker-mid:none;marker-end:none" />
      <path
         style="color:#000000;fill:url(#radialGradient47979);fill-opacity:1;fill-rule:evenodd;stroke:#000000;stroke-width:2;stroke-linecap:round;stroke-linejoin:round;stroke-miterlimit:4;stroke-dasharray:none;stroke-dashoffset:0;stroke-opacity:0.330961;marker:none;marker-start:none;marker-mid:none;marker-end:none"
         d="m -672.54888,1363.204 c 2.03405,67.3146 43.48122,128.3556 109.9375,173.0313 67.02911,45.0608 159.39438,73.2606 261.5625,74.1875 v -48.625 c -108.34622,-2.7175 -195.84526,-90.2339 -198.5625,-198.5938 z"
         id="path27394" />
      <path
         id="path48021"
         d="m -615.125,1363.2188 c 36.58151,44.3747 87.28438,80.3095 146.84375,103.4374 -19.01035,-30.0936 -30.39191,-65.4794 -31.34375,-103.4374 z"
         style="color:#000000;opacity:0.0492958;fill:#ffffff;fill-opacity:1;fill-rule:evenodd;stroke:none;stroke-width:5;stroke-linecap:round;stroke-linejoin:round;stroke-miterlimit:4;stroke-dashoffset:0;stroke-opacity:0.330961;marker:none;marker-start:none;marker-mid:none;marker-end:none" />
    </g>
    <g
       id="green_normal"
       inkscape:label="#g48060"
       transform="matrix(0.26460823,0,0,0.26431176,185.93711,-283.80871)">
      <path
         d="m -91.333151,1362.9984 c -2.71632,108.3598 -90.185939,195.87 -198.531249,198.5875 v 48.6311 c 102.16812,-0.9269 194.533369,-29.136 261.562499,-74.1968 66.456285,-44.6757 107.90343,-105.7072 109.9375,-173.0218 z"
         style="color:#000000;fill:#00892c;fill-opacity:1;fill-rule:evenodd;stroke:none;stroke-width:3.125;stroke-linecap:round;stroke-linejoin:round;stroke-miterlimit:4;stroke-dashoffset:0;stroke-opacity:1;marker:none;marker-start:none;marker-mid:none;marker-end:none"
         id="path27384" />
      <path
         style="color:#000000;fill:url(#radialGradient47995);fill-opacity:1;fill-rule:evenodd;stroke:#000000;stroke-width:2;stroke-linecap:round;stroke-linejoin:round;stroke-miterlimit:4;stroke-dasharray:none;stroke-dashoffset:0;stroke-opacity:0.330961;marker:none;marker-start:none;marker-mid:none;marker-end:none"
         d="m -91.334781,1362.9961 c -2.71632,108.3599 -90.185939,195.8763 -198.531249,198.5938 v 48.625 c 102.16813,-0.9269 194.533369,-29.1267 261.562499,-74.1875 66.456282,-44.6757 107.90343,-105.7167 109.9375,-173.0313 z"
         id="path27392" />
      <path
         style="color:#000000;opacity:0.524648;fill:url(#radialGradient47992);fill-opacity:1;fill-rule:evenodd;stroke:none;stroke-width:2;stroke-linecap:round;stroke-linejoin:round;stroke-miterlimit:4;stroke-dasharray:none;stroke-dashoffset:0;stroke-opacity:0.330961;marker:none;marker-start:none;marker-mid:none;marker-end:none"
         d="m -91.334781,1362.9961 c -2.71632,108.3599 -90.185939,195.8763 -198.531249,198.5938 v 48.625 c 102.16813,-0.9269 194.533369,-29.1267 261.562499,-74.1875 66.456282,-44.6757 107.90343,-105.7167 109.9375,-173.0313 z"
         id="path34613" />
      <path
         id="path33718"
         d="m -91.334781,1362.9961 c -2.71632,108.3599 -90.185939,195.8763 -198.531249,198.5938 v 48.625 c 102.16813,-0.9269 194.533369,-29.1267 261.562499,-74.1875 66.456282,-44.6757 107.90343,-105.7167 109.9375,-173.0313 z"
         style="color:#000000;opacity:0.503521;fill:url(#radialGradient47989);fill-opacity:1;fill-rule:evenodd;stroke:none;stroke-width:2;stroke-linecap:round;stroke-linejoin:round;stroke-miterlimit:4;stroke-dasharray:none;stroke-dashoffset:0;stroke-opacity:0.330961;marker:none;marker-start:none;marker-mid:none;marker-end:none" />
      <path
         id="path48055"
         d="m -91.34375,1363 c -0.747337,29.8129 -7.908335,58.0496 -20.15625,83.375 40.726627,-21.9104 75.784198,-50.2991 103,-83.375 z"
         style="color:#000000;opacity:0.0246479;fill:#ffffff;fill-opacity:1;fill-rule:evenodd;stroke:none;stroke-width:5;stroke-linecap:round;stroke-linejoin:round;stroke-miterlimit:4;stroke-dashoffset:0;stroke-opacity:0.330961;marker:none;marker-start:none;marker-mid:none;marker-end:none" />
    </g>
    <g
       id="red_normal"
       inkscape:label="#g48083"
       transform="matrix(0.26460823,0,0,0.26431176,185.93755,-285.5057)">
      <path
         d="m -289.8644,1105.467 v 48.6562 c 108.3557,2.7166 195.830929,90.2028 198.531249,198.5625 h 172.96875 c -2.022125,-67.317 -43.470885,-128.323 -109.9375,-173 -67.02913,-45.055 -159.394379,-73.2909 -261.562499,-74.2187 z"
         style="color:#000000;fill:#bf0303;fill-opacity:1;fill-rule:evenodd;stroke:none;stroke-width:3.125;stroke-linecap:round;stroke-linejoin:round;stroke-miterlimit:4;stroke-dashoffset:0;stroke-opacity:1;marker:none;marker-start:none;marker-mid:none;marker-end:none"
         id="path27382" />
      <path
         style="color:#000000;fill:url(#radialGradient48047);fill-opacity:1;fill-rule:evenodd;stroke:#000000;stroke-width:2;stroke-linecap:round;stroke-linejoin:round;stroke-miterlimit:4;stroke-dasharray:none;stroke-dashoffset:0;stroke-opacity:0.330961;marker:none;marker-start:none;marker-mid:none;marker-end:none"
         d="m -289.86603,1105.4649 v 48.6562 c 108.35571,2.7166 195.830929,90.2028 198.531249,198.5625 h 172.96875 c -2.022124,-67.317 -43.470885,-128.323 -109.9375,-173 -67.02913,-45.055 -159.394379,-73.2909 -261.562499,-74.2187 z"
         id="path27390" />
      <path
         id="path40850"
         d="m -289.86603,1105.4649 v 48.6562 c 108.35571,2.7166 195.830929,90.2028 198.531249,198.5625 h 172.96875 c -2.022124,-67.317 -43.470885,-128.323 -109.9375,-173 -67.02913,-45.055 -159.394379,-73.2909 -261.562499,-74.2187 z"
         style="color:#000000;opacity:0.535211;fill:url(#radialGradient48044);fill-opacity:1;fill-rule:evenodd;stroke:none;stroke-width:2;stroke-linecap:round;stroke-linejoin:round;stroke-miterlimit:4;stroke-dasharray:none;stroke-dashoffset:0;stroke-opacity:0.330961;marker:none;marker-start:none;marker-mid:none;marker-end:none" />
      <path
         style="color:#000000;opacity:0.535211;fill:url(#radialGradient48041);fill-opacity:1;fill-rule:evenodd;stroke:none;stroke-width:2;stroke-linecap:round;stroke-linejoin:round;stroke-miterlimit:4;stroke-dasharray:none;stroke-dashoffset:0;stroke-opacity:0.330961;marker:none;marker-start:none;marker-mid:none;marker-end:none"
         d="m -289.86603,1105.4649 v 48.6562 c 108.35571,2.7166 195.830929,90.2028 198.531249,198.5625 h 172.96875 c -2.022124,-67.317 -43.470885,-128.323 -109.9375,-173 -67.02913,-45.055 -159.394379,-73.2909 -261.562499,-74.2187 z"
         id="path41745" />
      <path
         id="path48052"
         d="m -289.875,1105.4688 v 48.6562 c 108.35571,2.7166 195.83093,90.2028 198.53125,198.5625 H -0.375 c 22.794323,-30.3092 39.17628,-64.191 47.59375,-100.375 -18.68131,-27.1091 -44.3530558,-51.6679 -75.53125,-72.625 -67.029129,-45.055 -159.39438,-73.2909 -261.5625,-74.2187 z"
         style="color:#000000;opacity:0.176056;fill:url(#radialGradient57113);fill-opacity:1;fill-rule:evenodd;stroke:none;stroke-width:5;stroke-linecap:round;stroke-linejoin:round;stroke-miterlimit:4;stroke-dashoffset:0;stroke-opacity:0.330961;marker:none;marker-start:none;marker-mid:none;marker-end:none" />
      <path
         id="path48078"
         d="M -289.875,1105.4688 V 1117.5 c 6.32548,-0.2108 12.69219,-0.3125 19.09375,-0.3125 190.547302,10e-5 317.627079,102.4956 331.21875,235.5 H 81.625 c -2.022127,-67.317 -43.470885,-128.323 -109.9375,-173 -67.029129,-45.055 -159.39438,-73.2909 -261.5625,-74.2187 z"
         style="color:#000000;opacity:0.197183;fill:url(#radialGradient6492);fill-opacity:1;fill-rule:evenodd;stroke:none;stroke-width:5;stroke-linecap:round;stroke-linejoin:round;stroke-miterlimit:4;stroke-dashoffset:0;stroke-opacity:0.330961;marker:none;marker-start:none;marker-mid:none;marker-end:none" />
    </g>
  </g>
</svg>
